<svg width="46" height="46" viewBox="0 0 46 46" fill="none" xmlns="http://www.w3.org/2000/svg">
<rect x="0.557007" y="0.289551" width="45" height="45" rx="8" fill="url(#paint0_linear_27_394)"/>
<path d="M32.2667 14.944C32.2667 14.944 34.2093 14.1865 34.0474 16.0262C33.9935 16.7837 33.5078 19.435 33.1301 22.3027L31.835 30.7975C31.835 30.7975 31.7271 32.042 30.7557 32.2584C29.7844 32.4748 28.3274 31.5009 28.0576 31.2845C27.8417 31.1222 24.0104 28.6873 22.6613 27.497C22.2836 27.1723 21.8519 26.523 22.7153 25.7655L28.3814 20.3548C29.0289 19.7055 29.6765 18.1905 26.9783 20.0302L19.4236 25.1704C19.4236 25.1704 18.5602 25.7114 16.9413 25.2245L13.4337 24.1423C13.4337 24.1423 12.1386 23.3307 14.3511 22.5191C19.7474 19.976 26.3848 17.3789 32.2667 14.944Z" fill="white"/>
<defs>
<linearGradient id="paint0_linear_27_394" x1="23.057" y1="0.289551" x2="23.057" y2="45.2896" gradientUnits="userSpaceOnUse">
<stop stop-color="#E90884"/>
<stop offset="1" stop-color="#FED73A"/>
</linearGradient>
</defs>
</svg>
