<svg width="46" height="46" viewBox="0 0 46 46" fill="none" xmlns="http://www.w3.org/2000/svg">
<rect x="0.557007" y="0.289551" width="45" height="45" rx="8" fill="url(#paint0_linear_27_385)"/>
<g clip-path="url(#clip0_27_385)">
<path fill-rule="evenodd" clip-rule="evenodd" d="M13.6126 13.0396C13.4477 13.0396 13.307 13.1751 13.307 13.3509V33.2282C13.307 33.404 13.4477 33.5396 13.6126 33.5396H33.5015C33.6663 33.5396 33.807 33.404 33.807 33.2282V13.3509C33.807 13.1751 33.6663 13.0396 33.5015 13.0396H13.6126ZM11.807 13.3509C11.807 12.3544 12.6115 11.5396 13.6126 11.5396H33.5015C34.5025 11.5396 35.307 12.3544 35.307 13.3509V33.2282C35.307 34.2247 34.5025 35.0396 33.5015 35.0396H13.6126C12.6115 35.0396 11.807 34.2247 11.807 33.2282V13.3509Z" fill="white"/>
<path fill-rule="evenodd" clip-rule="evenodd" d="M30.8877 20.2329H28.7107H28.4535C27.7785 20.2329 27.2312 20.7801 27.2312 21.4551V23.9003H30.8877L30.3522 27.5657H27.2312V34.2894H23.2102V27.5657H19.8904V23.9003H23.1673L23.2102 20.4211L23.1982 19.1741C23.1813 17.4133 24.5951 15.9721 26.3559 15.9552C26.3661 15.9551 26.3763 15.9551 26.3865 15.9551H30.8877V20.2329Z" fill="white"/>
</g>
<defs>
<linearGradient id="paint0_linear_27_385" x1="23.057" y1="0.289551" x2="23.057" y2="45.2896" gradientUnits="userSpaceOnUse">
<stop stop-color="#E90884"/>
<stop offset="1" stop-color="#FED73A"/>
</linearGradient>
<clipPath id="clip0_27_385">
<rect width="24" height="24" fill="white" transform="translate(11.557 11.2896)"/>
</clipPath>
</defs>
</svg>
