<svg width="46" height="46" viewBox="0 0 46 46" fill="none" xmlns="http://www.w3.org/2000/svg">
<rect x="0.557007" y="0.289551" width="45" height="45" rx="8" fill="url(#paint0_linear_27_388)"/>
<path fill-rule="evenodd" clip-rule="evenodd" d="M13.807 18.2896C13.807 15.6662 15.9337 13.5396 18.557 13.5396H28.557C31.1804 13.5396 33.307 15.6662 33.307 18.2896V28.2896C33.307 30.9129 31.1804 33.0396 28.557 33.0396H18.557C15.9337 33.0396 13.807 30.9129 13.807 28.2896V18.2896ZM18.557 15.0396C16.7621 15.0396 15.307 16.4946 15.307 18.2896V28.2896C15.307 30.0845 16.7621 31.5396 18.557 31.5396H28.557C30.3519 31.5396 31.807 30.0845 31.807 28.2896V18.2896C31.807 16.4946 30.3519 15.0396 28.557 15.0396H18.557Z" fill="white"/>
<path fill-rule="evenodd" clip-rule="evenodd" d="M18.807 23.2896C18.807 20.6662 20.9336 18.5396 23.557 18.5396C26.1804 18.5396 28.307 20.6662 28.307 23.2896C28.307 25.9129 26.1804 28.0396 23.557 28.0396C20.9336 28.0396 18.807 25.9129 18.807 23.2896ZM23.557 20.0396C21.7621 20.0396 20.307 21.4946 20.307 23.2896C20.307 25.0845 21.7621 26.5396 23.557 26.5396C25.3519 26.5396 26.807 25.0845 26.807 23.2896C26.807 21.4946 25.3519 20.0396 23.557 20.0396Z" fill="white"/>
<path d="M29.057 18.7896C29.6093 18.7896 30.057 18.3419 30.057 17.7896C30.057 17.2373 29.6093 16.7896 29.057 16.7896C28.5047 16.7896 28.057 17.2373 28.057 17.7896C28.057 18.3419 28.5047 18.7896 29.057 18.7896Z" fill="white"/>
<defs>
<linearGradient id="paint0_linear_27_388" x1="23.057" y1="0.289551" x2="23.057" y2="45.2896" gradientUnits="userSpaceOnUse">
<stop stop-color="#E90884"/>
<stop offset="1" stop-color="#FED73A"/>
</linearGradient>
</defs>
</svg>
