<svg width="26" height="26" viewBox="0 0 26 26" fill="none" xmlns="http://www.w3.org/2000/svg">
<path fill-rule="evenodd" clip-rule="evenodd" d="M17.575 15.9706L25.2875 23.6831H25.325C25.6839 24.0391 25.7931 24.5763 25.6016 25.0442C25.4101 25.5121 24.9555 25.8185 24.45 25.8206C24.1159 25.8192 23.7963 25.6842 23.5625 25.4456L15.85 17.7331L11.3625 22.2206C10.8749 22.7053 10.0875 22.7053 9.6 22.2206L7.3 19.9206C6.59247 19.212 6.37604 18.1496 6.75 17.2206L1.85 12.2206C1.14392 11.517 0.74704 10.5612 0.74704 9.56438C0.74704 8.56756 1.14392 7.61176 1.85 6.90813L6.85 1.90813C7.55363 1.20205 8.50943 0.805176 9.50625 0.805176C10.5031 0.805176 11.4589 1.20205 12.1625 1.90813L17.0625 6.90813C17.9841 6.52461 19.0455 6.72608 19.7625 7.42063L22.0625 9.72063C22.5472 10.2082 22.5472 10.9956 22.0625 11.4831L17.575 15.9706ZM9.0375 18.1581L10.5 19.5706L19.4125 10.6581L18 9.19563L17.8125 9.40813C17.5778 9.64477 17.2583 9.77788 16.925 9.77788C16.5917 9.77788 16.2722 9.64477 16.0375 9.40813L10.3375 3.78313C9.84995 3.29848 9.06254 3.29848 8.575 3.78313L3.575 8.78313C3.09034 9.27068 3.09034 10.0581 3.575 10.5456L9.25 16.1956C9.48664 16.4303 9.61974 16.7498 9.61974 17.0831C9.61974 17.4164 9.48664 17.7359 9.25 17.9706L9.0375 18.1581Z" fill="#231F20"/>
</svg>
