<svg width="30" height="31" viewBox="0 0 30 31" fill="none" xmlns="http://www.w3.org/2000/svg">
<path fill-rule="evenodd" clip-rule="evenodd" d="M22.425 21.1956C23.119 20.5331 24.0405 20.1618 25 20.1581C27.0711 20.1581 28.75 21.837 28.75 23.9081C28.75 25.9792 27.0711 27.6581 25 27.6581C22.9289 27.6581 21.25 25.9792 21.25 23.9081C21.2377 23.7458 21.2377 23.5829 21.25 23.4206L9.5 16.9956C8.8393 18.171 7.59839 18.9013 6.25 18.9081C4.17893 18.9081 2.5 17.2292 2.5 15.1581C2.5 13.087 4.17893 11.4081 6.25 11.4081C7.59839 11.4149 8.8393 12.1451 9.5 13.3206L21.25 6.89559C21.2377 6.73332 21.2377 6.57036 21.25 6.40809C21.2435 4.62784 22.4896 3.08839 24.2321 2.72387C25.9747 2.35935 27.7334 3.27025 28.441 4.90384C29.1486 6.53742 28.6102 8.44339 27.1524 9.46521C25.6945 10.487 23.7192 10.343 22.425 9.12059L11.3625 15.1581L22.425 21.1956ZM26.25 6.40809C26.25 5.71774 25.6904 5.15809 25 5.15809C24.3096 5.15809 23.75 5.71774 23.75 6.40809C23.75 7.09845 24.3096 7.65809 25 7.65809C25.6904 7.65809 26.25 7.09845 26.25 6.40809ZM6.25 16.4081C5.55964 16.4081 5 15.8484 5 15.1581C5 14.4677 5.55964 13.9081 6.25 13.9081C6.94036 13.9081 7.5 14.4677 7.5 15.1581C7.5 15.8484 6.94036 16.4081 6.25 16.4081ZM23.75 23.9081C23.75 24.5984 24.3096 25.1581 25 25.1581C25.6904 25.1581 26.25 24.5984 26.25 23.9081C26.25 23.2177 25.6904 22.6581 25 22.6581C24.3096 22.6581 23.75 23.2177 23.75 23.9081Z" fill="#231F20"/>
</svg>
