<svg width="30" height="31" viewBox="0 0 30 31" fill="none" xmlns="http://www.w3.org/2000/svg">
<path fill-rule="evenodd" clip-rule="evenodd" d="M26.1625 7.18323L25.5 5.22073C24.9685 3.71741 23.5445 2.71458 21.95 2.72073H8.04999C6.45549 2.71458 5.03147 3.71741 4.49999 5.22073L3.83749 7.18323C2.99312 7.85145 2.50049 8.86895 2.49999 9.94573V10.7832C2.49534 12.5013 3.50517 14.0601 5.07499 14.7582C5.02504 14.8857 4.99959 15.0214 4.99999 15.1582V23.9082C4.99999 25.9793 6.67892 27.6582 8.74998 27.6582H21.25C23.3211 27.6582 25 25.9793 25 23.9082V15.1582C25.0004 15.0214 24.9749 14.8857 24.925 14.7582C26.4948 14.0601 27.5046 12.5013 27.5 10.7832V9.94573C27.4995 8.86895 27.0068 7.85145 26.1625 7.18323ZM6.86247 6.0082C7.04121 5.47649 7.55228 5.12896 8.11247 5.1582H21.95C22.5102 5.12896 23.0212 5.47649 23.2 6.0082L23.325 6.4082H6.73747L6.86247 6.0082ZM17.5 10.7832V8.9082H12.5V10.7832C12.5 11.8187 13.3394 12.6582 14.375 12.6582H15.625C16.6605 12.6582 17.5 11.8187 17.5 10.7832ZM4.99997 10.7832V9.9457C4.99997 9.3727 5.46447 8.9082 6.03747 8.9082H9.99997V10.7832C9.99997 11.8187 9.1605 12.6582 8.12497 12.6582H6.87497C5.83943 12.6582 4.99997 11.8187 4.99997 10.7832ZM13.75 21.4082V25.1582H16.25V21.4082C16.25 20.7178 15.6903 20.1582 15 20.1582C14.3096 20.1582 13.75 20.7178 13.75 21.4082ZM22.5 23.9082C22.5 24.5986 21.9403 25.1582 21.25 25.1582H18.75V21.4082C18.75 19.3371 17.071 17.6582 15 17.6582C12.9289 17.6582 11.25 19.3371 11.25 21.4082V25.1582H8.74997C8.05961 25.1582 7.49997 24.5986 7.49997 23.9082V15.1582H8.12497C9.30426 15.1637 10.4341 14.6847 11.25 13.8332C12.0659 14.6847 13.1957 15.1637 14.375 15.1582H15.625C16.8043 15.1637 17.9341 14.6847 18.75 13.8332C19.5659 14.6847 20.6957 15.1637 21.875 15.1582H22.5V23.9082ZM23.125 12.6582C24.1605 12.6582 25 11.8187 25 10.7832V9.9457C25 9.3727 24.5355 8.9082 23.9625 8.9082H20V10.7832C20 11.8187 20.8394 12.6582 21.875 12.6582H23.125Z" fill="#231F20"/>
</svg>
