<svg width="46" height="46" viewBox="0 0 46 46" fill="none" xmlns="http://www.w3.org/2000/svg">
<rect x="0.557007" y="0.289551" width="45" height="45" rx="8" fill="url(#paint0_linear_27_397)"/>
<path fill-rule="evenodd" clip-rule="evenodd" d="M30.7253 15.9749C30.2472 15.3194 29.673 14.8105 28.9953 14.4783C28.2305 14.1035 27.3807 13.9766 26.4717 14.0679C25.0043 14.2154 23.9794 15.0336 23.3939 16.2348C22.8939 17.2608 22.7194 18.546 22.7792 19.9216C21.4146 20.4501 20.2106 20.1639 19.1435 19.4826C17.9226 18.7033 16.9075 17.4131 16.1934 16.2491C16.0361 15.9928 15.741 15.8552 15.4436 15.8995C15.1462 15.9438 14.904 16.1614 14.8283 16.4524C14.3285 18.3724 13.7932 20.8526 14.8541 23.6087C15.4618 25.1872 16.7392 26.4997 18.5745 27.5824C16.7504 28.4005 15.3047 28.6449 14.1974 28.4339C13.8354 28.3649 13.4768 28.5692 13.3516 28.9158C13.2264 29.2624 13.3716 29.6487 13.6941 29.827C13.7169 29.8396 13.7432 29.8542 13.7729 29.8708C14.3719 30.2041 16.3539 31.3072 18.8128 31.9847C21.3742 32.6904 24.6168 32.9792 27.3643 31.2626C32.4594 28.0792 32.4252 22.6842 32.409 20.1153C32.4085 20.0468 32.4081 19.9804 32.4078 19.916C32.4786 19.793 32.5664 19.6654 32.6798 19.5037C32.6852 19.4961 32.6906 19.4884 32.6961 19.4806C32.8425 19.2718 33.023 19.0145 33.189 18.7001C33.5476 18.0209 33.807 17.1403 33.807 15.7614C33.807 15.4635 33.6306 15.1938 33.3577 15.0743C33.0847 14.9549 32.7669 15.0083 32.5481 15.2105C31.8452 15.8597 31.2535 16.0508 30.7253 15.9749ZM28.3351 15.8252C27.8572 15.591 27.2947 15.4928 26.6217 15.5604C25.716 15.6514 25.1203 16.1164 24.7423 16.892C24.3432 17.7108 24.1864 18.893 24.3083 20.3295C24.3341 20.6342 24.1723 20.9241 23.8994 21.0622C21.7892 22.1293 19.8741 21.7287 18.3363 20.747C17.3867 20.1408 16.5735 19.3119 15.9106 18.4688C15.6592 19.897 15.6227 21.4298 16.254 23.0698C16.8033 24.4966 18.1631 25.8034 20.5394 26.9234C20.7952 27.044 20.9614 27.2981 20.9694 27.5807C20.9773 27.8634 20.8257 28.1265 20.5771 28.2612C19.2826 28.9628 18.0664 29.4682 16.9382 29.7491C17.6125 30.0298 18.3835 30.3105 19.2112 30.5386C21.6226 31.2029 24.3528 31.3755 26.5695 29.9905C30.9351 27.2628 30.9179 22.6756 30.9082 20.0747C30.9077 19.9564 30.9073 19.8422 30.9073 19.7325C30.9073 19.6207 30.9323 19.5103 30.9804 19.4094C31.1222 19.1124 31.2996 18.8594 31.447 18.6492L31.4524 18.6415C31.6075 18.4203 31.7412 18.2296 31.8626 17.9998C31.9671 17.8018 32.0688 17.5621 32.1485 17.2484C31.4824 17.5199 30.7816 17.5756 30.0598 17.3599C29.8904 17.3093 29.7443 17.2005 29.6473 17.0527C29.2554 16.4551 28.8145 16.0602 28.3351 15.8252Z" fill="white"/>
<defs>
<linearGradient id="paint0_linear_27_397" x1="23.057" y1="0.289551" x2="23.057" y2="45.2896" gradientUnits="userSpaceOnUse">
<stop stop-color="#E90884"/>
<stop offset="1" stop-color="#FED73A"/>
</linearGradient>
</defs>
</svg>
