<svg width="46" height="46" viewBox="0 0 46 46" fill="none" xmlns="http://www.w3.org/2000/svg">
<rect x="0.557007" y="0.289551" width="45" height="45" rx="8" fill="url(#paint0_linear_27_400)"/>
<path d="M17.0887 16.4968L17.0514 15.7477L17.0514 15.7477L17.0887 16.4968ZM30.0254 16.4968L30.0627 15.7477L30.0627 15.7477L30.0254 16.4968ZM32.8657 19.2432L33.6131 19.1807L33.6131 19.1807L32.8657 19.2432ZM32.861 27.3157L33.6084 27.3787V27.3787L32.861 27.3157ZM30.0674 30.057L30.0184 29.3086L30.0184 29.3086L30.0674 30.057ZM17.0468 30.0571L16.9979 30.8055L16.9979 30.8055L17.0468 30.0571ZM14.2533 27.3171L15.0006 27.2537L14.2533 27.3171ZM14.2486 19.2418L13.5012 19.1789L13.5012 19.1789L14.2486 19.2418ZM17.126 17.2458C19.8933 17.1079 22.0346 17.0396 23.5559 17.0396V15.5396C21.9975 15.5396 19.8273 15.6093 17.0514 15.7477L17.126 17.2458ZM23.5559 17.0396C25.0773 17.0396 27.2194 17.1079 29.9881 17.2459L30.0627 15.7477C27.2854 15.6094 25.1145 15.5396 23.5559 15.5396V17.0396ZM29.9881 17.2459C31.1139 17.302 32.0244 18.1824 32.1183 19.3056L33.6131 19.1807C33.4566 17.3086 31.939 15.8412 30.0627 15.7477L29.9881 17.2459ZM32.1183 19.3056C32.2439 20.8079 32.3059 22.1224 32.3059 23.2515H33.8059C33.8059 22.0701 33.7411 20.7124 33.6131 19.1807L32.1183 19.3056ZM32.3059 23.2515C32.3059 24.3944 32.2424 25.7273 32.1137 27.2526L33.6084 27.3787C33.7395 25.8238 33.8059 24.4473 33.8059 23.2515H32.3059ZM32.1137 27.2526C32.0201 28.3619 31.1293 29.236 30.0184 29.3086L30.1163 30.8054C31.9678 30.6843 33.4524 29.2275 33.6084 27.3787L32.1137 27.2526ZM30.0184 29.3086C27.6608 29.4628 25.5069 29.5396 23.5559 29.5396V31.0396C25.5454 31.0396 27.7325 30.9613 30.1163 30.8054L30.0184 29.3086ZM23.5559 29.5396C21.6051 29.5396 19.452 29.4628 17.0958 29.3087L16.9979 30.8055C19.3804 30.9613 21.5667 31.0396 23.5559 31.0396V29.5396ZM17.0958 29.3087C15.9853 29.2361 15.0947 28.3625 15.0006 27.2537L13.506 27.3804C13.6628 29.2285 15.147 30.6844 16.9979 30.8055L17.0958 29.3087ZM15.0006 27.2537C14.8703 25.7165 14.8059 24.3833 14.8059 23.2515H13.3059C13.3059 24.4372 13.3732 25.8144 13.506 27.3804L15.0006 27.2537ZM14.8059 23.2515C14.8059 22.1332 14.8687 20.8185 14.996 19.3046L13.5012 19.1789C13.3716 20.7216 13.3059 22.08 13.3059 23.2515H14.8059ZM14.996 19.3046C15.0904 18.1818 16.0007 17.3019 17.1261 17.2458L17.0514 15.7477C15.1758 15.8412 13.6586 17.3076 13.5012 19.1789L14.996 19.3046Z" fill="white"/>
<path d="M22.7219 25.8501L22.3084 25.2244L22.3083 25.2245L22.7219 25.8501ZM26.0207 23.6698L26.4342 24.2955L26.4342 24.2955L26.0207 23.6698ZM26.1419 23.076L26.7676 22.6624L26.7676 22.6624L26.1419 23.076ZM26.0235 22.9566L25.605 23.579L25.6052 23.5791L26.0235 22.9566ZM22.7247 20.7385L23.1432 20.1161L23.1432 20.1161L22.7247 20.7385ZM22.1299 20.855L21.5075 20.4365L21.5074 20.4368L22.1299 20.855ZM21.307 21.0941V25.4926H22.807V21.0941H21.307ZM21.307 25.4926C21.307 26.1434 21.8347 26.6711 22.4856 26.6711V25.1711C22.6631 25.1711 22.807 25.315 22.807 25.4926H21.307ZM22.4856 26.6711C22.7166 26.6711 22.9427 26.6032 23.1356 26.4757L22.3083 25.2245C22.361 25.1896 22.4226 25.1711 22.4856 25.1711V26.6711ZM23.1354 26.4758L26.4342 24.2955L25.6072 23.0441L22.3084 25.2244L23.1354 26.4758ZM26.4342 24.2955C26.9773 23.9366 27.1264 23.2054 26.7676 22.6624L25.5162 23.4895C25.4184 23.3415 25.459 23.1421 25.6072 23.0441L26.4342 24.2955ZM26.7676 22.6624C26.6819 22.5328 26.5713 22.4211 26.4418 22.3341L25.6052 23.5791C25.5697 23.5553 25.5395 23.5248 25.5162 23.4896L26.7676 22.6624ZM26.442 22.3342L23.1432 20.1161L22.3062 21.3609L25.605 23.579L26.442 22.3342ZM23.1432 20.1161C22.603 19.7529 21.8707 19.8964 21.5075 20.4365L22.7523 21.2735C22.6533 21.4208 22.4536 21.46 22.3062 21.3609L23.1432 20.1161ZM21.5074 20.4368C21.3769 20.631 21.307 20.8598 21.307 21.0941H22.807C22.807 21.1582 22.7879 21.2205 22.7525 21.2733L21.5074 20.4368Z" fill="white"/>
<defs>
<linearGradient id="paint0_linear_27_400" x1="23.057" y1="0.289551" x2="23.057" y2="45.2896" gradientUnits="userSpaceOnUse">
<stop stop-color="#E90884"/>
<stop offset="1" stop-color="#FED73A"/>
</linearGradient>
</defs>
</svg>
